# xmcd CD database file
#
# Track frame offsets:
#	150
#	16804
#	45793
#	68739
#	89304
#	112829
#	120612
#	146894
#	166324
#	179807
#	201559
#	215328
#	238862
#	262622
#
# Disc length: 3742 seconds
#
# Revision: 0
# Processed by: cddbd v1.5PL3 Copyright (c) Steve Scherf et al.
# Submitted via: CDex 1.51
#
DISCID=bf0e9c0e
DTITLE=Cori Jacobs - Copperskin
DYEAR=2003
DGENRE=Jazz
TTITLE0=Cori Jacobs - Copperskin - 01 - Copper Skin - Poem (Jadah) 
TTITLE1=Cori Jacobs - Copperskin - 02 - 18th st.
TTITLE2=Cori Jacobs - Copperskin - 03 - Clear Soul
TTITLE3=Cori Jacobs - Copperskin - 04 - LoveLight&Butterflies
TTITLE4=Cori Jacobs - Copperskin - 05 - Club Kic Back
TTITLE5=Cori Jacobs - Copperskin - 06 - Beautiful - poem (Nesa)
TTITLE6=Cori Jacobs - Copperskin - 07 - EmariMyles
TTITLE7=Cori Jacobs - Copperskin - 08 - Dedos Largos
TTITLE8=Cori Jacobs - Copperskin - 09 - From Heaven
TTITLE9=Cori Jacobs - Copperskin - 10 - Breathing Again
TTITLE10=Cori Jacobs - Copperskin - 11 - Hug Me
TTITLE11=Cori Jacobs - Copperskin - 12 - The Only 1 For Me
TTITLE12=Cori Jacobs - Copperskin - 13 - Pushing Up
TTITLE13=Cori Jacobs - Copperskin - 14 - Farewell Aaliyah
EXTD=YEAR: 2003
EXTT0=
EXTT1=
EXTT2=
EXTT3=
EXTT4=
EXTT5=
EXTT6=
EXTT7=
EXTT8=
EXTT9=
EXTT10=
EXTT11=
EXTT12=
EXTT13=
PLAYORDER=
